<svg width="82" height="82" viewBox="0 0 82 82" fill="none" xmlns="http://www.w3.org/2000/svg">
<path d="M39.7418 7.2478C40.0639 5.93113 41.9361 5.93112 42.2582 7.2478C42.7716 9.34669 45.6364 9.63802 46.5618 7.68544C47.1424 6.46055 48.9763 6.83742 49.0267 8.19198C49.1071 10.3513 51.8546 11.2133 53.1542 9.48699C53.9694 8.40403 55.6899 9.14234 55.4666 10.4793C55.1107 12.6106 57.6285 14.0081 59.2489 12.5787C60.2654 11.682 61.8021 12.7515 61.3142 14.0162C60.5366 16.0322 62.7215 17.9079 64.5965 16.8339C65.7727 16.1602 67.0626 17.5172 66.3302 18.6578C65.1627 20.476 66.9253 22.7531 68.9781 22.0786C70.2658 21.6554 71.2562 23.2442 70.3091 24.214C68.7995 25.76 70.0677 28.3453 72.2142 28.0978C73.5608 27.9426 74.211 29.6982 73.0882 30.4575C71.2982 31.668 72.02 34.4556 74.1725 34.6453C75.5227 34.7643 75.8062 36.6149 74.5535 37.1327C72.5566 37.958 72.7024 40.8339 74.7726 41.453C76.0713 41.8413 75.9764 43.7111 74.6451 43.9661C72.5229 44.3725 72.0869 47.2189 73.9901 48.2421C75.184 48.8839 74.7147 50.6963 73.3594 50.6781C71.1988 50.649 70.1987 53.3494 71.857 54.7347C72.8972 55.6037 72.0727 57.2846 70.7488 56.9939C68.6383 56.5305 67.1151 58.9742 68.4606 60.665C69.3046 61.7256 68.1586 63.2061 66.9203 62.6549C64.9463 61.7761 62.9623 63.8632 63.9399 65.7902C64.5532 66.999 63.1326 68.2185 62.0306 67.4293C60.2739 66.1712 57.9104 67.8162 58.4801 69.9005C58.8375 71.2081 57.2005 72.1166 56.2799 71.1217C54.8124 69.5357 52.1662 70.6713 52.3046 72.8276C52.3915 74.1804 50.6052 74.7408 49.9037 73.5809C48.7855 71.732 45.9648 72.3117 45.6664 74.4517C45.4792 75.7942 43.6166 75.9837 43.1629 74.7063C42.4398 72.6701 39.5602 72.6701 38.8371 74.7063C38.3834 75.9837 36.5208 75.7942 36.3336 74.4517C36.0352 72.3117 33.2145 71.732 32.0963 73.5809C31.3948 74.7408 29.6085 74.1804 29.6954 72.8276C29.8338 70.6713 27.1876 69.5357 25.7201 71.1217C24.7995 72.1166 23.1625 71.2081 23.5199 69.9005C24.0896 67.8162 21.7261 66.1712 19.9694 67.4293C18.8674 68.2185 17.4468 66.999 18.0601 65.7902C19.0377 63.8632 17.0537 61.7761 15.0797 62.6549C13.8414 63.2061 12.6954 61.7256 13.5394 60.665C14.8849 58.9742 13.3617 56.5305 11.2512 56.9939C9.92726 57.2846 9.10275 55.6037 10.143 54.7347C11.8013 53.3494 10.8012 50.649 8.64064 50.6781C7.28526 50.6963 6.81599 48.8839 8.0099 48.2421C9.9131 47.2189 9.47705 44.3725 7.35485 43.9661C6.02355 43.7111 5.92873 41.8413 7.2274 41.453C9.29759 40.8339 9.44344 37.958 7.4465 37.1327C6.19378 36.6149 6.47728 34.7643 7.82755 34.6453C9.97998 34.4556 10.7018 31.668 8.91183 30.4575C7.78897 29.6982 8.4392 27.9426 9.78578 28.0978C11.9323 28.3453 13.2005 25.76 11.6909 24.214C10.7438 23.2442 11.7342 21.6554 13.0219 22.0786C15.0747 22.7531 16.8373 20.476 15.6698 18.6578C14.9374 17.5172 16.2273 16.1602 17.4035 16.8339C19.2785 17.9079 21.4634 16.0322 20.6858 14.0162C20.1979 12.7515 21.7346 11.682 22.7511 12.5787C24.3715 14.0081 26.8893 12.6106 26.5334 10.4793C26.3101 9.14235 28.0306 8.40403 28.8458 9.48699C30.1454 11.2133 32.8929 10.3513 32.9733 8.19198C33.0237 6.83742 34.8576 6.46055 35.4382 7.68544C36.3636 9.63802 39.2284 9.34669 39.7418 7.2478Z" fill="#729FD4" stroke="white"/>
<mask id="mask0_25_18921" style="mask-type:alpha" maskUnits="userSpaceOnUse" x="22" y="19" width="38" height="45">
<path d="M38.5 61C38.5 62.3807 39.6193 63.5 41 63.5C42.3807 63.5 43.5 62.3807 43.5 61L38.5 61ZM42.7678 20.2322C41.7915 19.2559 40.2085 19.2559 39.2322 20.2322L23.3223 36.1421C22.346 37.1184 22.346 38.7014 23.3223 39.6777C24.2986 40.654 25.8816 40.654 26.8579 39.6777L41 25.5355L55.1421 39.6777C56.1184 40.654 57.7014 40.654 58.6777 39.6777C59.654 38.7014 59.654 37.1184 58.6777 36.1421L42.7678 20.2322ZM43.5 61L43.5 22L38.5 22L38.5 61L43.5 61Z" fill="white"/>
</mask>
<g mask="url(#mask0_25_18921)">
<circle cx="24.5" cy="18.5" r="1.5" fill="white"/>
<circle cx="24.5" cy="21.5" r="1.5" fill="white"/>
<circle cx="24.5" cy="24.5" r="1.5" fill="white"/>
<circle cx="24.5" cy="27.5" r="1.5" fill="white"/>
<circle cx="24.5" cy="30.5" r="1.5" fill="white"/>
<circle cx="24.5" cy="33.5" r="1.5" fill="white"/>
<circle cx="24.5" cy="36.5" r="1.5" fill="white"/>
<circle cx="24.5" cy="39.5" r="1.5" fill="white"/>
<circle cx="24.5" cy="42.5" r="1.5" fill="white"/>
<circle cx="24.5" cy="45.5" r="1.5" fill="white"/>
<circle cx="24.5" cy="48.5" r="1.5" fill="white"/>
<circle cx="24.5" cy="51.5" r="1.5" fill="white"/>
<circle cx="24.5" cy="54.5" r="1.5" fill="white"/>
<circle cx="24.5" cy="57.5" r="1.5" fill="white"/>
<circle cx="24.5" cy="60.5" r="1.5" fill="white"/>
<circle cx="24.5" cy="63.5" r="1.5" fill="white"/>
<circle cx="27.5" cy="18.5" r="1.5" fill="white"/>
<circle cx="27.5" cy="21.5" r="1.5" fill="white"/>
<circle cx="27.5" cy="24.5" r="1.5" fill="white"/>
<circle cx="27.5" cy="27.5" r="1.5" fill="white"/>
<circle cx="27.5" cy="30.5" r="1.5" fill="white"/>
<circle cx="27.5" cy="33.5" r="1.5" fill="white"/>
<circle cx="27.5" cy="36.5" r="1.5" fill="white"/>
<circle cx="27.5" cy="39.5" r="1.5" fill="white"/>
<circle cx="27.5" cy="42.5" r="1.5" fill="white"/>
<circle cx="27.5" cy="45.5" r="1.5" fill="white"/>
<circle cx="27.5" cy="48.5" r="1.5" fill="white"/>
<circle cx="27.5" cy="51.5" r="1.5" fill="white"/>
<circle cx="27.5" cy="54.5" r="1.5" fill="white"/>
<circle cx="27.5" cy="57.5" r="1.5" fill="white"/>
<circle cx="27.5" cy="60.5" r="1.5" fill="white"/>
<circle cx="27.5" cy="63.5" r="1.5" fill="white"/>
<circle cx="30.5" cy="18.5" r="1.5" fill="white"/>
<circle cx="30.5" cy="21.5" r="1.5" fill="white"/>
<circle cx="30.5" cy="24.5" r="1.5" fill="white"/>
<circle cx="30.5" cy="27.5" r="1.5" fill="white"/>
<circle cx="30.5" cy="30.5" r="1.5" fill="white"/>
<circle cx="30.5" cy="33.5" r="1.5" fill="white"/>
<circle cx="30.5" cy="36.5" r="1.5" fill="white"/>
<circle cx="30.5" cy="39.5" r="1.5" fill="white"/>
<circle cx="30.5" cy="42.5" r="1.5" fill="white"/>
<circle cx="30.5" cy="45.5" r="1.5" fill="white"/>
<circle cx="30.5" cy="48.5" r="1.5" fill="white"/>
<circle cx="30.5" cy="51.5" r="1.5" fill="white"/>
<circle cx="30.5" cy="54.5" r="1.5" fill="white"/>
<circle cx="30.5" cy="57.5" r="1.5" fill="white"/>
<circle cx="30.5" cy="60.5" r="1.5" fill="white"/>
<circle cx="30.5" cy="63.5" r="1.5" fill="white"/>
<circle cx="33.5" cy="18.5" r="1.5" fill="white"/>
<circle cx="33.5" cy="21.5" r="1.5" fill="white"/>
<circle cx="33.5" cy="24.5" r="1.5" fill="white"/>
<circle cx="33.5" cy="27.5" r="1.5" fill="white"/>
<circle cx="33.5" cy="30.5" r="1.5" fill="white"/>
<circle cx="33.5" cy="33.5" r="1.5" fill="white"/>
<circle cx="33.5" cy="36.5" r="1.5" fill="white"/>
<circle cx="33.5" cy="39.5" r="1.5" fill="white"/>
<circle cx="33.5" cy="42.5" r="1.5" fill="white"/>
<circle cx="33.5" cy="45.5" r="1.5" fill="white"/>
<circle cx="33.5" cy="48.5" r="1.5" fill="white"/>
<circle cx="33.5" cy="51.5" r="1.5" fill="white"/>
<circle cx="33.5" cy="54.5" r="1.5" fill="white"/>
<circle cx="33.5" cy="57.5" r="1.5" fill="white"/>
<circle cx="33.5" cy="60.5" r="1.5" fill="white"/>
<circle cx="33.5" cy="63.5" r="1.5" fill="white"/>
<circle cx="36.5" cy="18.5" r="1.5" fill="white"/>
<circle cx="36.5" cy="21.5" r="1.5" fill="white"/>
<circle cx="36.5" cy="24.5" r="1.5" fill="white"/>
<circle cx="36.5" cy="27.5" r="1.5" fill="white"/>
<circle cx="36.5" cy="30.5" r="1.5" fill="white"/>
<circle cx="36.5" cy="33.5" r="1.5" fill="white"/>
<circle cx="36.5" cy="36.5" r="1.5" fill="white"/>
<circle cx="36.5" cy="39.5" r="1.5" fill="white"/>
<circle cx="36.5" cy="42.5" r="1.5" fill="white"/>
<circle cx="36.5" cy="45.5" r="1.5" fill="white"/>
<circle cx="36.5" cy="48.5" r="1.5" fill="white"/>
<circle cx="36.5" cy="51.5" r="1.5" fill="white"/>
<circle cx="36.5" cy="54.5" r="1.5" fill="white"/>
<circle cx="36.5" cy="57.5" r="1.5" fill="white"/>
<circle cx="36.5" cy="60.5" r="1.5" fill="white"/>
<circle cx="36.5" cy="63.5" r="1.5" fill="white"/>
<circle cx="39.5" cy="18.5" r="1.5" fill="white"/>
<circle cx="42.5" cy="18.5" r="1.5" fill="white"/>
<circle cx="45.5" cy="18.5" r="1.5" fill="white"/>
<circle cx="48.5" cy="18.5" r="1.5" fill="white"/>
<circle cx="51.5" cy="18.5" r="1.5" fill="white"/>
<circle cx="54.5" cy="18.5" r="1.5" fill="white"/>
<circle cx="57.5" cy="18.5" r="1.5" fill="white"/>
<circle cx="60.5" cy="18.5" r="1.5" fill="white"/>
<circle cx="39.5" cy="21.5" r="1.5" fill="white"/>
<circle cx="42.5" cy="21.5" r="1.5" fill="white"/>
<circle cx="45.5" cy="21.5" r="1.5" fill="white"/>
<circle cx="48.5" cy="21.5" r="1.5" fill="white"/>
<circle cx="51.5" cy="21.5" r="1.5" fill="white"/>
<circle cx="54.5" cy="21.5" r="1.5" fill="white"/>
<circle cx="57.5" cy="21.5" r="1.5" fill="white"/>
<circle cx="60.5" cy="21.5" r="1.5" fill="white"/>
<circle cx="39.5" cy="24.5" r="1.5" fill="white"/>
<circle cx="42.5" cy="24.5" r="1.5" fill="white"/>
<circle cx="45.5" cy="24.5" r="1.5" fill="white"/>
<circle cx="48.5" cy="24.5" r="1.5" fill="white"/>
<circle cx="51.5" cy="24.5" r="1.5" fill="white"/>
<circle cx="54.5" cy="24.5" r="1.5" fill="white"/>
<circle cx="57.5" cy="24.5" r="1.5" fill="white"/>
<circle cx="60.5" cy="24.5" r="1.5" fill="white"/>
<circle cx="39.5" cy="27.5" r="1.5" fill="white"/>
<circle cx="42.5" cy="27.5" r="1.5" fill="white"/>
<circle cx="45.5" cy="27.5" r="1.5" fill="white"/>
<circle cx="48.5" cy="27.5" r="1.5" fill="white"/>
<circle cx="51.5" cy="27.5" r="1.5" fill="white"/>
<circle cx="54.5" cy="27.5" r="1.5" fill="white"/>
<circle cx="57.5" cy="27.5" r="1.5" fill="white"/>
<circle cx="60.5" cy="27.5" r="1.5" fill="white"/>
<circle cx="39.5" cy="30.5" r="1.5" fill="white"/>
<circle cx="42.5" cy="30.5" r="1.5" fill="white"/>
<circle cx="45.5" cy="30.5" r="1.5" fill="white"/>
<circle cx="48.5" cy="30.5" r="1.5" fill="white"/>
<circle cx="51.5" cy="30.5" r="1.5" fill="white"/>
<circle cx="54.5" cy="30.5" r="1.5" fill="white"/>
<circle cx="57.5" cy="30.5" r="1.5" fill="white"/>
<circle cx="60.5" cy="30.5" r="1.5" fill="white"/>
<circle cx="39.5" cy="33.5" r="1.5" fill="white"/>
<circle cx="42.5" cy="33.5" r="1.5" fill="white"/>
<circle cx="45.5" cy="33.5" r="1.5" fill="white"/>
<circle cx="48.5" cy="33.5" r="1.5" fill="white"/>
<circle cx="51.5" cy="33.5" r="1.5" fill="white"/>
<circle cx="54.5" cy="33.5" r="1.5" fill="white"/>
<circle cx="57.5" cy="33.5" r="1.5" fill="white"/>
<circle cx="60.5" cy="33.5" r="1.5" fill="white"/>
<circle cx="39.5" cy="36.5" r="1.5" fill="white"/>
<circle cx="42.5" cy="36.5" r="1.5" fill="white"/>
<circle cx="45.5" cy="36.5" r="1.5" fill="white"/>
<circle cx="48.5" cy="36.5" r="1.5" fill="white"/>
<circle cx="51.5" cy="36.5" r="1.5" fill="white"/>
<circle cx="54.5" cy="36.5" r="1.5" fill="white"/>
<circle cx="57.5" cy="36.5" r="1.5" fill="white"/>
<circle cx="60.5" cy="36.5" r="1.5" fill="white"/>
<circle cx="39.5" cy="39.5" r="1.5" fill="white"/>
<circle cx="42.5" cy="39.5" r="1.5" fill="white"/>
<circle cx="45.5" cy="39.5" r="1.5" fill="white"/>
<circle cx="48.5" cy="39.5" r="1.5" fill="white"/>
<circle cx="51.5" cy="39.5" r="1.5" fill="white"/>
<circle cx="54.5" cy="39.5" r="1.5" fill="white"/>
<circle cx="57.5" cy="39.5" r="1.5" fill="white"/>
<circle cx="60.5" cy="39.5" r="1.5" fill="white"/>
<circle cx="39.5" cy="42.5" r="1.5" fill="white"/>
<circle cx="42.5" cy="42.5" r="1.5" fill="white"/>
<circle cx="45.5" cy="42.5" r="1.5" fill="white"/>
<circle cx="48.5" cy="42.5" r="1.5" fill="white"/>
<circle cx="51.5" cy="42.5" r="1.5" fill="white"/>
<circle cx="54.5" cy="42.5" r="1.5" fill="white"/>
<circle cx="57.5" cy="42.5" r="1.5" fill="white"/>
<circle cx="60.5" cy="42.5" r="1.5" fill="white"/>
<circle cx="39.5" cy="45.5" r="1.5" fill="white"/>
<circle cx="42.5" cy="45.5" r="1.5" fill="white"/>
<circle cx="45.5" cy="45.5" r="1.5" fill="white"/>
<circle cx="48.5" cy="45.5" r="1.5" fill="white"/>
<circle cx="51.5" cy="45.5" r="1.5" fill="white"/>
<circle cx="54.5" cy="45.5" r="1.5" fill="white"/>
<circle cx="57.5" cy="45.5" r="1.5" fill="white"/>
<circle cx="60.5" cy="45.5" r="1.5" fill="white"/>
<circle cx="39.5" cy="48.5" r="1.5" fill="white"/>
<circle cx="42.5" cy="48.5" r="1.5" fill="white"/>
<circle cx="45.5" cy="48.5" r="1.5" fill="white"/>
<circle cx="48.5" cy="48.5" r="1.5" fill="white"/>
<circle cx="51.5" cy="48.5" r="1.5" fill="white"/>
<circle cx="54.5" cy="48.5" r="1.5" fill="white"/>
<circle cx="57.5" cy="48.5" r="1.5" fill="white"/>
<circle cx="60.5" cy="48.5" r="1.5" fill="white"/>
<circle cx="39.5" cy="51.5" r="1.5" fill="white"/>
<circle cx="42.5" cy="51.5" r="1.5" fill="white"/>
<circle cx="45.5" cy="51.5" r="1.5" fill="white"/>
<circle cx="48.5" cy="51.5" r="1.5" fill="white"/>
<circle cx="51.5" cy="51.5" r="1.5" fill="white"/>
<circle cx="54.5" cy="51.5" r="1.5" fill="white"/>
<circle cx="57.5" cy="51.5" r="1.5" fill="white"/>
<circle cx="60.5" cy="51.5" r="1.5" fill="white"/>
<circle cx="39.5" cy="54.5" r="1.5" fill="white"/>
<circle cx="39.5" cy="57.5" r="1.5" fill="white"/>
<circle cx="39.5" cy="60.5" r="1.5" fill="white"/>
<circle cx="39.5" cy="63.5" r="1.5" fill="white"/>
<circle cx="42.5" cy="54.5" r="1.5" fill="white"/>
<circle cx="42.5" cy="57.5" r="1.5" fill="white"/>
<circle cx="42.5" cy="60.5" r="1.5" fill="white"/>
<circle cx="42.5" cy="63.5" r="1.5" fill="white"/>
<circle cx="45.5" cy="54.5" r="1.5" fill="white"/>
<circle cx="45.5" cy="57.5" r="1.5" fill="white"/>
<circle cx="45.5" cy="60.5" r="1.5" fill="white"/>
<circle cx="45.5" cy="63.5" r="1.5" fill="white"/>
<circle cx="48.5" cy="54.5" r="1.5" fill="white"/>
<circle cx="48.5" cy="57.5" r="1.5" fill="white"/>
<circle cx="48.5" cy="60.5" r="1.5" fill="white"/>
<circle cx="48.5" cy="63.5" r="1.5" fill="white"/>
<circle cx="51.5" cy="54.5" r="1.5" fill="white"/>
<circle cx="51.5" cy="57.5" r="1.5" fill="white"/>
<circle cx="51.5" cy="60.5" r="1.5" fill="white"/>
<circle cx="51.5" cy="63.5" r="1.5" fill="white"/>
<circle cx="54.5" cy="54.5" r="1.5" fill="white"/>
<circle cx="54.5" cy="57.5" r="1.5" fill="white"/>
<circle cx="54.5" cy="60.5" r="1.5" fill="white"/>
<circle cx="54.5" cy="63.5" r="1.5" fill="white"/>
<circle cx="57.5" cy="54.5" r="1.5" fill="white"/>
<circle cx="60.5" cy="54.5" r="1.5" fill="white"/>
<circle cx="57.5" cy="57.5" r="1.5" fill="white"/>
<circle cx="60.5" cy="57.5" r="1.5" fill="white"/>
<circle cx="57.5" cy="60.5" r="1.5" fill="white"/>
<circle cx="60.5" cy="60.5" r="1.5" fill="white"/>
<circle cx="57.5" cy="63.5" r="1.5" fill="white"/>
<circle cx="60.5" cy="63.5" r="1.5" fill="white"/>
</g>
</svg>
