<svg width="16" height="456" viewBox="0 0 16 456" fill="none" xmlns="http://www.w3.org/2000/svg">
<path d="M0 8C0 12.4183 3.58172 16 8 16C12.4183 16 16 12.4183 16 8C16 3.58172 12.4183 0 8 0C3.58172 0 0 3.58172 0 8ZM0 448C0 452.418 3.58172 456 8 456C12.4183 456 16 452.418 16 448C16 443.582 12.4183 440 8 440C3.58172 440 0 443.582 0 448ZM6.5 10.973C6.5 11.8014 7.17157 12.473 8 12.473C8.82843 12.473 9.5 11.8014 9.5 10.973H6.5ZM9.5 16.9189C9.5 16.0905 8.82843 15.4189 8 15.4189C7.17157 15.4189 6.5 16.0905 6.5 16.9189H9.5ZM6.5 22.8649C6.5 23.6933 7.17157 24.3649 8 24.3649C8.82843 24.3649 9.5 23.6933 9.5 22.8649H6.5ZM9.5 28.8108C9.5 27.9824 8.82843 27.3108 8 27.3108C7.17157 27.3108 6.5 27.9824 6.5 28.8108H9.5ZM6.5 34.7568C6.5 35.5852 7.17157 36.2568 8 36.2568C8.82843 36.2568 9.5 35.5852 9.5 34.7568H6.5ZM9.5 40.7027C9.5 39.8743 8.82843 39.2027 8 39.2027C7.17157 39.2027 6.5 39.8743 6.5 40.7027H9.5ZM6.5 46.6486C6.5 47.4771 7.17157 48.1486 8 48.1486C8.82843 48.1486 9.5 47.4771 9.5 46.6486H6.5ZM9.5 52.5946C9.5 51.7662 8.82843 51.0946 8 51.0946C7.17157 51.0946 6.5 51.7662 6.5 52.5946H9.5ZM6.5 58.5405C6.5 59.369 7.17157 60.0405 8 60.0405C8.82843 60.0405 9.5 59.369 9.5 58.5405H6.5ZM9.5 64.4865C9.5 63.6581 8.82843 62.9865 8 62.9865C7.17157 62.9865 6.5 63.6581 6.5 64.4865H9.5ZM6.5 70.4324C6.5 71.2609 7.17157 71.9324 8 71.9324C8.82843 71.9324 9.5 71.2609 9.5 70.4324H6.5ZM9.5 76.3784C9.5 75.5499 8.82843 74.8784 8 74.8784C7.17157 74.8784 6.5 75.5499 6.5 76.3784H9.5ZM6.5 82.3243C6.5 83.1527 7.17157 83.8243 8 83.8243C8.82843 83.8243 9.5 83.1527 9.5 82.3243H6.5ZM9.5 88.2703C9.5 87.4418 8.82843 86.7703 8 86.7703C7.17157 86.7703 6.5 87.4418 6.5 88.2703H9.5ZM6.5 94.2162C6.5 95.0446 7.17157 95.7162 8 95.7162C8.82843 95.7162 9.5 95.0446 9.5 94.2162H6.5ZM9.5 100.162C9.5 99.3337 8.82843 98.6622 8 98.6622C7.17157 98.6622 6.5 99.3337 6.5 100.162H9.5ZM6.5 106.108C6.5 106.937 7.17157 107.608 8 107.608C8.82843 107.608 9.5 106.937 9.5 106.108H6.5ZM9.5 112.054C9.5 111.226 8.82843 110.554 8 110.554C7.17157 110.554 6.5 111.226 6.5 112.054H9.5ZM6.5 118C6.5 118.828 7.17157 119.5 8 119.5C8.82843 119.5 9.5 118.828 9.5 118H6.5ZM9.5 123.946C9.5 123.118 8.82843 122.446 8 122.446C7.17157 122.446 6.5 123.118 6.5 123.946H9.5ZM6.5 129.892C6.5 130.72 7.17157 131.392 8 131.392C8.82843 131.392 9.5 130.72 9.5 129.892H6.5ZM9.5 135.838C9.5 135.009 8.82843 134.338 8 134.338C7.17157 134.338 6.5 135.009 6.5 135.838H9.5ZM6.5 141.784C6.5 142.612 7.17157 143.284 8 143.284C8.82843 143.284 9.5 142.612 9.5 141.784H6.5ZM9.5 147.73C9.5 146.901 8.82843 146.23 8 146.23C7.17157 146.23 6.5 146.901 6.5 147.73H9.5ZM6.5 153.676C6.5 154.504 7.17157 155.176 8 155.176C8.82843 155.176 9.5 154.504 9.5 153.676H6.5ZM9.5 159.622C9.5 158.793 8.82843 158.122 8 158.122C7.17157 158.122 6.5 158.793 6.5 159.622H9.5ZM6.5 165.568C6.5 166.396 7.17157 167.068 8 167.068C8.82843 167.068 9.5 166.396 9.5 165.568H6.5ZM9.5 171.514C9.5 170.685 8.82843 170.014 8 170.014C7.17157 170.014 6.5 170.685 6.5 171.514H9.5ZM6.5 177.46C6.5 178.288 7.17157 178.96 8 178.96C8.82843 178.96 9.5 178.288 9.5 177.46H6.5ZM9.5 183.405C9.5 182.577 8.82843 181.905 8 181.905C7.17157 181.905 6.5 182.577 6.5 183.405H9.5ZM6.5 189.351C6.5 190.18 7.17157 190.851 8 190.851C8.82843 190.851 9.5 190.18 9.5 189.351H6.5ZM9.5 195.297C9.5 194.469 8.82843 193.797 8 193.797C7.17157 193.797 6.5 194.469 6.5 195.297H9.5ZM6.5 201.243C6.5 202.072 7.17157 202.743 8 202.743C8.82843 202.743 9.5 202.072 9.5 201.243H6.5ZM9.5 207.189C9.5 206.361 8.82843 205.689 8 205.689C7.17157 205.689 6.5 206.361 6.5 207.189H9.5ZM6.5 213.135C6.5 213.964 7.17157 214.635 8 214.635C8.82843 214.635 9.5 213.964 9.5 213.135H6.5ZM9.5 219.081C9.5 218.253 8.82843 217.581 8 217.581C7.17157 217.581 6.5 218.253 6.5 219.081H9.5ZM6.5 225.027C6.5 225.856 7.17157 226.527 8 226.527C8.82843 226.527 9.5 225.856 9.5 225.027H6.5ZM9.5 230.973C9.5 230.145 8.82843 229.473 8 229.473C7.17157 229.473 6.5 230.145 6.5 230.973H9.5ZM6.5 236.919C6.5 237.747 7.17157 238.419 8 238.419C8.82843 238.419 9.5 237.747 9.5 236.919H6.5ZM9.5 242.865C9.5 242.037 8.82843 241.365 8 241.365C7.17157 241.365 6.5 242.037 6.5 242.865H9.5ZM6.5 248.811C6.5 249.639 7.17157 250.311 8 250.311C8.82843 250.311 9.5 249.639 9.5 248.811H6.5ZM9.5 254.757C9.5 253.928 8.82843 253.257 8 253.257C7.17157 253.257 6.5 253.928 6.5 254.757H9.5ZM6.5 260.703C6.5 261.531 7.17157 262.203 8 262.203C8.82843 262.203 9.5 261.531 9.5 260.703H6.5ZM9.5 266.649C9.5 265.82 8.82843 265.149 8 265.149C7.17157 265.149 6.5 265.82 6.5 266.649H9.5ZM6.5 272.595C6.5 273.423 7.17157 274.095 8 274.095C8.82843 274.095 9.5 273.423 9.5 272.595H6.5ZM9.5 278.541C9.5 277.712 8.82843 277.041 8 277.041C7.17157 277.041 6.5 277.712 6.5 278.541H9.5ZM6.5 284.487C6.5 285.315 7.17157 285.987 8 285.987C8.82843 285.987 9.5 285.315 9.5 284.487H6.5ZM9.5 290.433C9.5 289.604 8.82843 288.933 8 288.933C7.17157 288.933 6.5 289.604 6.5 290.433H9.5ZM6.5 296.379C6.5 297.207 7.17157 297.879 8 297.879C8.82843 297.879 9.5 297.207 9.5 296.379H6.5ZM9.5 302.325C9.5 301.496 8.82843 300.825 8 300.825C7.17157 300.825 6.5 301.496 6.5 302.325H9.5ZM6.5 308.27C6.5 309.099 7.17157 309.77 8 309.77C8.82843 309.77 9.5 309.099 9.5 308.27H6.5ZM9.5 314.216C9.5 313.388 8.82843 312.716 8 312.716C7.17157 312.716 6.5 313.388 6.5 314.216H9.5ZM6.5 320.162C6.5 320.991 7.17157 321.662 8 321.662C8.82843 321.662 9.5 320.991 9.5 320.162H6.5ZM9.5 326.108C9.5 325.28 8.82843 324.608 8 324.608C7.17157 324.608 6.5 325.28 6.5 326.108H9.5ZM6.5 332.054C6.5 332.883 7.17157 333.554 8 333.554C8.82843 333.554 9.5 332.883 9.5 332.054H6.5ZM9.5 338C9.5 337.172 8.82843 336.5 8 336.5C7.17157 336.5 6.5 337.172 6.5 338H9.5ZM6.5 343.946C6.5 344.775 7.17157 345.446 8 345.446C8.82843 345.446 9.5 344.775 9.5 343.946H6.5ZM9.5 349.892C9.5 349.064 8.82843 348.392 8 348.392C7.17157 348.392 6.5 349.064 6.5 349.892H9.5ZM6.5 355.838C6.5 356.667 7.17157 357.338 8 357.338C8.82843 357.338 9.5 356.667 9.5 355.838H6.5ZM9.5 361.784C9.5 360.956 8.82843 360.284 8 360.284C7.17157 360.284 6.5 360.956 6.5 361.784H9.5ZM6.5 367.73C6.5 368.558 7.17157 369.23 8 369.23C8.82843 369.23 9.5 368.558 9.5 367.73H6.5ZM9.5 373.676C9.5 372.848 8.82843 372.176 8 372.176C7.17157 372.176 6.5 372.848 6.5 373.676H9.5ZM6.5 379.622C6.5 380.45 7.17157 381.122 8 381.122C8.82843 381.122 9.5 380.45 9.5 379.622H6.5ZM9.5 385.568C9.5 384.739 8.82843 384.068 8 384.068C7.17157 384.068 6.5 384.739 6.5 385.568H9.5ZM6.5 391.514C6.5 392.342 7.17157 393.014 8 393.014C8.82843 393.014 9.5 392.342 9.5 391.514H6.5ZM9.5 397.46C9.5 396.631 8.82843 395.96 8 395.96C7.17157 395.96 6.5 396.631 6.5 397.46H9.5ZM6.5 403.406C6.5 404.234 7.17157 404.906 8 404.906C8.82843 404.906 9.5 404.234 9.5 403.406H6.5ZM9.5 409.352C9.5 408.523 8.82843 407.852 8 407.852C7.17157 407.852 6.5 408.523 6.5 409.352H9.5ZM6.5 415.298C6.5 416.126 7.17157 416.798 8 416.798C8.82843 416.798 9.5 416.126 9.5 415.298H6.5ZM9.5 421.244C9.5 420.415 8.82843 419.744 8 419.744C7.17157 419.744 6.5 420.415 6.5 421.244H9.5ZM6.5 427.19C6.5 428.018 7.17157 428.69 8 428.69C8.82843 428.69 9.5 428.018 9.5 427.19H6.5ZM9.5 433.135C9.5 432.307 8.82843 431.635 8 431.635C7.17157 431.635 6.5 432.307 6.5 433.135H9.5ZM6.5 439.081C6.5 439.91 7.17157 440.581 8 440.581C8.82843 440.581 9.5 439.91 9.5 439.081H6.5ZM9.5 445.027C9.5 444.199 8.82843 443.527 8 443.527C7.17157 443.527 6.5 444.199 6.5 445.027H9.5ZM6.5 8V10.973H9.5V8H6.5ZM6.5 16.9189V22.8649H9.5V16.9189H6.5ZM6.5 28.8108V34.7568H9.5V28.8108H6.5ZM6.5 40.7027V46.6486H9.5V40.7027H6.5ZM6.5 52.5946V58.5405H9.5V52.5946H6.5ZM6.5 64.4865V70.4324H9.5V64.4865H6.5ZM6.5 76.3784V82.3243H9.5V76.3784H6.5ZM6.5 88.2703V94.2162H9.5V88.2703H6.5ZM6.5 100.162V106.108H9.5V100.162H6.5ZM6.5 112.054V118H9.5V112.054H6.5ZM6.5 123.946V129.892H9.5V123.946H6.5ZM6.5 135.838V141.784H9.5V135.838H6.5ZM6.5 147.73V153.676H9.5V147.73H6.5ZM6.5 159.622V165.568H9.5V159.622H6.5ZM6.5 171.514V177.46H9.5V171.514H6.5ZM6.5 183.405V189.351H9.5V183.405H6.5ZM6.5 195.297V201.243H9.5V195.297H6.5ZM6.5 207.189V213.135H9.5V207.189H6.5ZM6.5 219.081V225.027H9.5V219.081H6.5ZM6.5 230.973V236.919H9.5V230.973H6.5ZM6.5 242.865V248.811H9.5V242.865H6.5ZM6.5 254.757V260.703H9.5V254.757H6.5ZM6.5 266.649V272.595H9.5V266.649H6.5ZM6.5 278.541V284.487H9.5V278.541H6.5ZM6.5 290.433V296.379H9.5V290.433H6.5ZM6.5 302.325V308.27H9.5V302.325H6.5ZM6.5 314.216V320.162H9.5V314.216H6.5ZM6.5 326.108V332.054H9.5V326.108H6.5ZM6.5 338V343.946H9.5V338H6.5ZM6.5 349.892V355.838H9.5V349.892H6.5ZM6.5 361.784V367.73H9.5V361.784H6.5ZM6.5 373.676V379.622H9.5V373.676H6.5ZM6.5 385.568V391.514H9.5V385.568H6.5ZM6.5 397.46V403.406H9.5V397.46H6.5ZM6.5 409.352V415.298H9.5V409.352H6.5ZM6.5 421.244V427.19H9.5V421.244H6.5ZM6.5 433.135V439.081H9.5V433.135H6.5ZM6.5 445.027V448H9.5V445.027H6.5Z" fill="#1D548C"/>
</svg>
